<svg width="16" height="16" viewBox="0 0 16 16" fill="none" xmlns="http://www.w3.org/2000/svg">
<path d="M7.99992 4.00001C7.82311 4.00001 7.65354 4.07025 7.52851 4.19527C7.40349 4.3203 7.33325 4.48987 7.33325 4.66668V11.3333C7.33325 11.5102 7.40349 11.6797 7.52851 11.8047C7.65354 11.9298 7.82311 12 7.99992 12C8.17673 12 8.3463 11.9298 8.47132 11.8047C8.59635 11.6797 8.66659 11.5102 8.66659 11.3333V4.66668C8.66659 4.48987 8.59635 4.3203 8.47132 4.19527C8.3463 4.07025 8.17673 4.00001 7.99992 4.00001ZM4.66659 8.00001C4.48977 8.00001 4.32021 8.07025 4.19518 8.19527C4.07016 8.3203 3.99992 8.48987 3.99992 8.66668V11.3333C3.99992 11.5102 4.07016 11.6797 4.19518 11.8047C4.32021 11.9298 4.48977 12 4.66659 12C4.8434 12 5.01297 11.9298 5.13799 11.8047C5.26301 11.6797 5.33325 11.5102 5.33325 11.3333V8.66668C5.33325 8.48987 5.26301 8.3203 5.13799 8.19527C5.01297 8.07025 4.8434 8.00001 4.66659 8.00001ZM11.3333 6.66668C11.1564 6.66668 10.9869 6.73692 10.8618 6.86194C10.7368 6.98696 10.6666 7.15653 10.6666 7.33334V11.3333C10.6666 11.5102 10.7368 11.6797 10.8618 11.8047C10.9869 11.9298 11.1564 12 11.3333 12C11.5101 12 11.6796 11.9298 11.8047 11.8047C11.9297 11.6797 11.9999 11.5102 11.9999 11.3333V7.33334C11.9999 7.15653 11.9297 6.98696 11.8047 6.86194C11.6796 6.73692 11.5101 6.66668 11.3333 6.66668ZM12.6666 1.33334H3.33325C2.80282 1.33334 2.29411 1.54406 1.91904 1.91913C1.54397 2.2942 1.33325 2.80291 1.33325 3.33334V12.6667C1.33325 13.1971 1.54397 13.7058 1.91904 14.0809C2.29411 14.456 2.80282 14.6667 3.33325 14.6667H12.6666C13.197 14.6667 13.7057 14.456 14.0808 14.0809C14.4559 13.7058 14.6666 13.1971 14.6666 12.6667V3.33334C14.6666 2.80291 14.4559 2.2942 14.0808 1.91913C13.7057 1.54406 13.197 1.33334 12.6666 1.33334ZM13.3333 12.6667C13.3333 12.8435 13.263 13.0131 13.138 13.1381C13.013 13.2631 12.8434 13.3333 12.6666 13.3333H3.33325C3.15644 13.3333 2.98687 13.2631 2.86185 13.1381C2.73682 13.0131 2.66659 12.8435 2.66659 12.6667V3.33334C2.66659 3.15653 2.73682 2.98696 2.86185 2.86194C2.98687 2.73691 3.15644 2.66668 3.33325 2.66668H12.6666C12.8434 2.66668 13.013 2.73691 13.138 2.86194C13.263 2.98696 13.3333 3.15653 13.3333 3.33334V12.6667Z" fill="#323A92"/>
</svg>
