<svg width="16" height="16" viewBox="0 0 16 16" fill="none" xmlns="http://www.w3.org/2000/svg">
<path d="M3.33325 12H6.15992C6.24766 12.0005 6.33463 11.9837 6.41586 11.9505C6.49708 11.9173 6.57096 11.8685 6.63325 11.8067L11.2466 7.18667L13.1399 5.33333C13.2024 5.27136 13.252 5.19762 13.2858 5.11638C13.3197 5.03515 13.3371 4.94801 13.3371 4.86C13.3371 4.77199 13.3197 4.68485 13.2858 4.60362C13.252 4.52238 13.2024 4.44864 13.1399 4.38667L10.3133 1.52667C10.2513 1.46418 10.1775 1.41458 10.0963 1.38074C10.0151 1.34689 9.92793 1.32947 9.83992 1.32947C9.75191 1.32947 9.66477 1.34689 9.58353 1.38074C9.50229 1.41458 9.42856 1.46418 9.36659 1.52667L7.48659 3.41333L2.85992 8.03333C2.79813 8.09563 2.74925 8.1695 2.71607 8.25073C2.68289 8.33195 2.66608 8.41893 2.66659 8.50667V11.3333C2.66659 11.5101 2.73682 11.6797 2.86185 11.8047C2.98687 11.9298 3.15644 12 3.33325 12ZM9.83992 2.94L11.7266 4.82667L10.7799 5.77333L8.89325 3.88667L9.83992 2.94ZM3.99992 8.78L7.95325 4.82667L9.83992 6.71333L5.88659 10.6667H3.99992V8.78ZM13.9999 13.3333H1.99992C1.82311 13.3333 1.65354 13.4036 1.52851 13.5286C1.40349 13.6536 1.33325 13.8232 1.33325 14C1.33325 14.1768 1.40349 14.3464 1.52851 14.4714C1.65354 14.5964 1.82311 14.6667 1.99992 14.6667H13.9999C14.1767 14.6667 14.3463 14.5964 14.4713 14.4714C14.5963 14.3464 14.6666 14.1768 14.6666 14C14.6666 13.8232 14.5963 13.6536 14.4713 13.5286C14.3463 13.4036 14.1767 13.3333 13.9999 13.3333Z" fill="#323A92"/>
</svg>
