<svg width="16" height="16" viewBox="0 0 16 16" fill="none" xmlns="http://www.w3.org/2000/svg">
<path d="M13.9999 1.33334H5.99992C5.82311 1.33334 5.65354 1.40358 5.52851 1.52861C5.40349 1.65363 5.33325 1.8232 5.33325 2.00001V4.66668H3.99992C3.82311 4.66668 3.65354 4.73691 3.52851 4.86194C3.40349 4.98696 3.33325 5.15653 3.33325 5.33334V8.00001H1.99992C1.82311 8.00001 1.65354 8.07025 1.52851 8.19527C1.40349 8.3203 1.33325 8.48987 1.33325 8.66668V14C1.33325 14.1768 1.40349 14.3464 1.52851 14.4714C1.65354 14.5964 1.82311 14.6667 1.99992 14.6667H7.33325C7.51006 14.6667 7.67963 14.5964 7.80466 14.4714C7.92968 14.3464 7.99992 14.1768 7.99992 14V12.6667H10.6666C10.8434 12.6667 11.013 12.5964 11.138 12.4714C11.263 12.3464 11.3333 12.1768 11.3333 12V10.6667H13.9999C14.1767 10.6667 14.3463 10.5964 14.4713 10.4714C14.5963 10.3464 14.6666 10.1768 14.6666 10V2.00001C14.6666 1.8232 14.5963 1.65363 14.4713 1.52861C14.3463 1.40358 14.1767 1.33334 13.9999 1.33334ZM6.66659 13.3333H2.66659V9.33334H6.66659V13.3333ZM9.99992 11.3333H7.99992V8.66668C7.99992 8.48987 7.92968 8.3203 7.80466 8.19527C7.67963 8.07025 7.51006 8.00001 7.33325 8.00001H4.66659V6.00001H9.99992V11.3333ZM13.3333 9.33334H11.3333V5.33334C11.3333 5.15653 11.263 4.98696 11.138 4.86194C11.013 4.73691 10.8434 4.66668 10.6666 4.66668H6.66659V2.66668H13.3333V9.33334Z" fill="#323A92"/>
</svg>
