<svg width="16" height="16" viewBox="0 0 16 16" fill="none" xmlns="http://www.w3.org/2000/svg">
<path d="M13.9999 7.33333H6.27325L7.80659 5.80667C7.86874 5.74451 7.91805 5.67071 7.95169 5.5895C7.98533 5.50829 8.00265 5.42124 8.00265 5.33333C8.00265 5.24543 7.98533 5.15838 7.95169 5.07717C7.91805 4.99595 7.86874 4.92216 7.80659 4.86C7.74443 4.79784 7.67063 4.74853 7.58942 4.71489C7.5082 4.68125 7.42116 4.66394 7.33325 4.66394C7.24535 4.66394 7.1583 4.68125 7.07709 4.71489C6.99587 4.74853 6.92208 4.79784 6.85992 4.86L4.19325 7.52667C4.13256 7.59007 4.08498 7.66483 4.05325 7.74667C3.98657 7.90897 3.98657 8.09103 4.05325 8.25333C4.08498 8.33517 4.13256 8.40993 4.19325 8.47333L6.85992 11.14C6.92189 11.2025 6.99563 11.2521 7.07687 11.2859C7.15811 11.3198 7.24524 11.3372 7.33325 11.3372C7.42126 11.3372 7.5084 11.3198 7.58964 11.2859C7.67088 11.2521 7.74461 11.2025 7.80659 11.14C7.86907 11.078 7.91867 11.0043 7.95251 10.9231C7.98636 10.8418 8.00378 10.7547 8.00378 10.6667C8.00378 10.5787 7.98636 10.4915 7.95251 10.4103C7.91867 10.329 7.86907 10.2553 7.80659 10.1933L6.27325 8.66667H13.9999C14.1767 8.66667 14.3463 8.59643 14.4713 8.4714C14.5963 8.34638 14.6666 8.17681 14.6666 8C14.6666 7.82319 14.5963 7.65362 14.4713 7.5286C14.3463 7.40357 14.1767 7.33333 13.9999 7.33333ZM1.99992 2C1.82311 2 1.65354 2.07024 1.52851 2.19526C1.40349 2.32029 1.33325 2.48986 1.33325 2.66667V13.3333C1.33325 13.5101 1.40349 13.6797 1.52851 13.8047C1.65354 13.9298 1.82311 14 1.99992 14C2.17673 14 2.3463 13.9298 2.47132 13.8047C2.59635 13.6797 2.66659 13.5101 2.66659 13.3333V2.66667C2.66659 2.48986 2.59635 2.32029 2.47132 2.19526C2.3463 2.07024 2.17673 2 1.99992 2Z" fill="white"/>
</svg>
