<svg width="32" height="32" viewBox="0 0 32 32" fill="none" xmlns="http://www.w3.org/2000/svg">
<path d="M0.336789 10.1062C0.637693 4.84037 4.84037 0.637693 10.1062 0.33679L16 0L21.8938 0.336789C27.1596 0.637693 31.3623 4.84037 31.6632 10.1062L32 16L31.6632 21.8938C31.3623 27.1596 27.1596 31.3623 21.8938 31.6632L16 32L10.1062 31.6632C4.84037 31.3623 0.637693 27.1596 0.33679 21.8938L0 16L0.336789 10.1062Z" fill="white"/>
<path d="M18.3222 21.1817C18.8529 20.7632 19.3596 20.3153 19.8401 19.8401C23.7882 15.892 25.2818 10.9841 23.1762 8.87856C21.0707 6.77299 16.1628 8.26662 12.2147 12.2147C8.26666 16.1627 6.77304 21.0706 8.8786 23.1762C9.87943 24.177 11.5117 24.3557 13.3709 23.8558" stroke="#03135C" stroke-width="1.61764" stroke-miterlimit="10" stroke-linecap="round" stroke-linejoin="round"/>
<path d="M18.322 10.8731C18.8527 11.2915 19.3595 11.7394 19.84 12.2147C23.788 16.1627 25.2817 21.0706 23.1761 23.1762C21.0705 25.2817 16.1626 23.7881 12.2146 19.8401C8.26652 15.892 6.7729 10.9841 8.87846 8.87856C9.8793 7.87772 11.5116 7.699 13.3708 8.19894" stroke="#8F88F8" stroke-width="1.61764" stroke-miterlimit="10" stroke-linecap="round" stroke-linejoin="round"/>
<path d="M18.3222 21.1818C18.8529 20.7633 19.3597 20.3154 19.8402 19.8402C23.7882 15.8921 25.2818 10.9842 23.1763 8.87866M8.87864 23.1763C9.87948 24.1771 11.5118 24.3558 13.371 23.8559" stroke="#03135C" stroke-width="1.61764" stroke-miterlimit="10" stroke-linecap="round" stroke-linejoin="round"/>
<path d="M18.7117 15.2421C18.6933 15.2022 18.6639 15.1684 18.6269 15.1447C18.59 15.121 18.547 15.1084 18.5031 15.1083H16.0404L16.4282 13.5555C16.4405 13.5054 16.4356 13.4526 16.4142 13.4057C16.3929 13.3587 16.3563 13.3203 16.3105 13.2966C16.2646 13.2729 16.2121 13.2654 16.1615 13.2752C16.1108 13.285 16.0649 13.3115 16.0312 13.3506L13.2739 16.5674C13.2454 16.6007 13.227 16.6416 13.2209 16.685C13.2149 16.7285 13.2214 16.7728 13.2397 16.8127C13.258 16.8525 13.2874 16.8863 13.3243 16.9101C13.3612 16.9338 13.4042 16.9464 13.4481 16.9465H15.9108L15.5229 18.4993C15.5104 18.5495 15.5153 18.6025 15.5366 18.6496C15.558 18.6967 15.5946 18.7352 15.6406 18.7589C15.673 18.776 15.7091 18.7848 15.7458 18.7847C15.7789 18.7846 15.8116 18.7774 15.8417 18.7635C15.8717 18.7496 15.8984 18.7294 15.92 18.7043L18.6772 15.4875C18.7058 15.4541 18.7243 15.4133 18.7304 15.3698C18.7365 15.3263 18.73 15.282 18.7117 15.2421Z" fill="#EC5C79"/>
</svg>
