<svg width="20" height="20" viewBox="0 0 20 20" fill="none" xmlns="http://www.w3.org/2000/svg">
<path d="M10.1239 4.73572L10.2351 5.08333H10.6001H15.8334C16.3638 5.08333 16.8726 5.29405 17.2476 5.66912C17.6227 6.04419 17.8334 6.5529 17.8334 7.08333V15.4167C17.8334 15.9471 17.6227 16.4558 17.2476 16.8309C16.8726 17.206 16.3638 17.4167 15.8334 17.4167H4.16675C3.63631 17.4167 3.12761 17.206 2.75253 16.8309L2.39898 17.1844L2.75253 16.8309C2.37746 16.4558 2.16675 15.9471 2.16675 15.4167V4.58333C2.16675 4.0529 2.37746 3.54419 2.75253 3.16912C3.12761 2.79405 3.63632 2.58333 4.16675 2.58333L7.96675 2.58334L7.96868 2.58333C8.38358 2.58173 8.78871 2.70921 9.12794 2.9481L9.41583 2.5393L9.12794 2.9481C9.46524 3.18563 9.72078 3.52162 9.85963 3.90998L10.1239 4.73572ZM9.23333 4.16029L9.23335 4.16028L7.96675 3.25H7.96618H4.16675C3.81313 3.25 3.47399 3.39047 3.22394 3.64052C2.97389 3.89057 2.83341 4.22971 2.83341 4.58333V15.4167C2.83341 15.7703 2.97389 16.1094 3.22394 16.3595C3.47399 16.6095 3.81313 16.75 4.16675 16.75H15.8334C16.187 16.75 16.5262 16.6095 16.7762 16.3595C17.0263 16.1094 17.1667 15.7703 17.1667 15.4167V7.08333C17.1667 6.72971 17.0263 6.39057 16.7762 6.14052C16.5262 5.89047 16.187 5.75 15.8334 5.75L10.0001 5.75L9.99879 5.75C9.92891 5.75018 9.86074 5.72839 9.80391 5.68772C9.74749 5.64733 9.70508 5.59034 9.6826 5.52472C9.68244 5.52426 9.68228 5.52379 9.68212 5.52333L9.23333 4.16029Z" fill="black" stroke="white"/>
</svg>
