<svg width="16" height="16" viewBox="0 0 16 16" fill="none" xmlns="http://www.w3.org/2000/svg">
<path d="M7.99992 1.33334C6.68138 1.33334 5.39245 1.72434 4.29612 2.45688C3.19979 3.18942 2.34531 4.23061 1.84072 5.44879C1.33614 6.66696 1.20412 8.00741 1.46135 9.30061C1.71859 10.5938 2.35353 11.7817 3.28588 12.7141C4.21823 13.6464 5.40611 14.2813 6.69932 14.5386C7.99253 14.7958 9.33297 14.6638 10.5511 14.1592C11.7693 13.6546 12.8105 12.8001 13.5431 11.7038C14.2756 10.6075 14.6666 9.31855 14.6666 8.00001C14.6666 7.12453 14.4941 6.25762 14.1591 5.44879C13.8241 4.63995 13.333 3.90502 12.714 3.28596C12.0949 2.66691 11.36 2.17584 10.5511 1.84081C9.74231 1.50578 8.8754 1.33334 7.99992 1.33334ZM7.99992 13.3333C6.94509 13.3333 5.91394 13.0205 5.03688 12.4345C4.15982 11.8485 3.47623 11.0155 3.07256 10.041C2.6689 9.06645 2.56328 7.99409 2.76907 6.95953C2.97485 5.92496 3.48281 4.97465 4.22869 4.22877C4.97457 3.48289 5.92487 2.97494 6.95944 2.76916C7.99401 2.56337 9.06636 2.66899 10.0409 3.07265C11.0154 3.47632 11.8484 4.15991 12.4344 5.03697C13.0205 5.91403 13.3333 6.94518 13.3333 8.00001C13.3333 9.4145 12.7714 10.7711 11.7712 11.7712C10.771 12.7714 9.41441 13.3333 7.99992 13.3333ZM10.6666 7.33334H8.66659V5.33334C8.66659 5.15653 8.59635 4.98696 8.47133 4.86194C8.3463 4.73691 8.17673 4.66668 7.99992 4.66668C7.82311 4.66668 7.65354 4.73691 7.52852 4.86194C7.40349 4.98696 7.33325 5.15653 7.33325 5.33334V7.33334H5.33325C5.15644 7.33334 4.98687 7.40358 4.86185 7.52861C4.73683 7.65363 4.66659 7.8232 4.66659 8.00001C4.66659 8.17682 4.73683 8.34639 4.86185 8.47141C4.98687 8.59644 5.15644 8.66668 5.33325 8.66668H7.33325V10.6667C7.33325 10.8435 7.40349 11.0131 7.52852 11.1381C7.65354 11.2631 7.82311 11.3333 7.99992 11.3333C8.17673 11.3333 8.3463 11.2631 8.47133 11.1381C8.59635 11.0131 8.66659 10.8435 8.66659 10.6667V8.66668H10.6666C10.8434 8.66668 11.013 8.59644 11.138 8.47141C11.263 8.34639 11.3333 8.17682 11.3333 8.00001C11.3333 7.8232 11.263 7.65363 11.138 7.52861C11.013 7.40358 10.8434 7.33334 10.6666 7.33334Z" fill="white"/>
</svg>
